<?xml version="1.0" encoding="UTF-8"?>
<svg width="180px" height="31px" viewBox="0 0 180 31" version="1.1" xmlns="http://www.w3.org/2000/svg" xmlns:xlink="http://www.w3.org/1999/xlink">
    <title>foundation/logo/favicon copy 5</title>
    <defs>
        <polygon id="path-1" points="4.51049401 29.9998819 0 29.9998819 0 0 4.51049401 0 9.020988 0 9.020988 29.9998819"></polygon>
        <polygon id="path-3" points="9.02114516 0 0 0 0 29.9997638 9.02114516 29.9997638"></polygon>
    </defs>
    <g id="--------↳-Logos" stroke="none" stroke-width="1" fill="none" fill-rule="evenodd">
        <g id="Logos" transform="translate(-151.000000, -506.000000)">
            <g id="01-Atoms-/-Logo-/-Primary-Light-Copy-6" transform="translate(151.000000, 506.500000)">
                <g id="Watch" transform="translate(113.803526, 0.687023)" fill="#1C1C1C" fill-rule="nonzero">
                    <polygon id="Fill-1" points="14.8200175 23.129771 13.0481135 23.129771 9.83968789 12.9718434 6.41685059 23.129771 4.64533467 23.129771 0 8.43165215 2.47523728 7.89227534 6.14195388 20.0836414 9.13713015 10.749482 8.40277883 8.43165215 10.8780161 7.89227534 14.5447327 20.0836414 18.3649879 8.17787522 19.8616071 8.17787522"></polygon>
                    <path d="M30.2989015,22.7490137 C29.3430238,22.9360723 28.9734235,21.2907436 28.9734235,20.5153361 L28.9734235,14.8354469 C26.7542549,14.9594964 23.3019107,16.1385568 23.3019107,18.8385027 C23.3019107,20.4527207 24.9042957,21.2907436 26.3224675,21.2907436 C27.1238558,21.2907436 27.9248526,21.1351895 28.664836,20.8559798 L28.35664,22.2220989 C27.2470557,22.6568627 25.9829825,22.9049615 24.8123848,22.9049615 C22.5928254,22.9049615 20.5895505,21.6636795 20.5895505,19.2425495 C20.5895505,15.3320384 25.891071,13.8729808 28.9734235,13.6248819 L28.9734235,12.1973288 C28.9734235,10.0865192 28.1403548,9.12444686 26.045169,9.12444686 C24.6266064,9.12444686 23.1478126,9.46627196 21.7922194,9.90064196 L22.0065485,8.56563366 C23.394213,8.00721429 24.9042957,7.60395515 26.4452766,7.60395515 C29.5585266,7.60395515 31.5007875,8.96928661 31.5007875,12.2591566 L31.5007875,19.5532638 C31.5007875,20.5153361 31.4389919,21.8806676 32.487172,22.3150376 L30.2989015,22.7490137 Z" id="Fill-2"></path>
                    <path d="M41.3027145,22.5005998 C40.3472289,22.6872646 39.3299469,22.8113141 38.3744606,22.8113141 C35.8169808,22.8113141 34.9530145,21.4774872 34.9530145,19.0248525 L34.9530145,8.90753756 L33.2579357,8.90753756 L33.2579357,7.88324357 L34.9530145,7.88324357 L34.9530145,4.40710256 L37.4498725,3.87940017 L37.4498725,7.88324357 L40.6863224,7.88324357 L40.6863224,8.90753756 L37.4498725,8.90753756 L37.4498725,18.3734945 C37.4498725,20.359467 37.7889661,21.2601053 39.8853256,21.2601053 C40.4704287,21.2601053 41.0872123,21.1974899 41.6723154,21.1045512 L41.3027145,22.5005998 Z" id="Fill-4"></path>
                    <path d="M52.3253015,22.3459908 C51.0608369,22.7181392 49.7056345,22.8114716 48.3793749,22.8114716 C44.0947448,22.8114716 41.6909715,19.2423919 41.6909715,15.2078315 C41.6909715,11.1728773 44.1260338,7.63490844 48.3793749,7.63490844 C49.7056345,7.63490844 50.7526408,7.75895788 52.0167146,8.10078299 L52.3863149,9.49722531 C51.3389177,9.2487326 50.6611208,9.18690476 49.6125499,9.18690476 C45.8211121,9.18690476 44.3423183,11.7628013 44.3423183,15.2696593 C44.3423183,18.7454065 45.9134144,21.259869 49.6125499,21.259869 C50.6611208,21.259869 51.6780119,21.2287582 52.6952932,20.9491547 L52.3253015,22.3459908 Z" id="Fill-6"></path>
                    <path d="M63.6992241,22.5005998 L63.6992241,13.0350366 C63.6992241,11.2038305 62.9588499,9.18674724 60.8014769,9.18674724 C59.5995903,9.18674724 58.0277119,10.2417582 57.1649194,11.0797811 L57.1649194,22.5005998 L54.6672792,22.5005998 L54.6672792,0.528096198 L57.1649194,0 L57.1336304,9.62151099 C58.5209041,8.34911818 60.2167646,7.66586173 62.0960567,7.66586173 C64.9320089,7.66586173 66.1964736,9.77627748 66.1964736,12.4143956 L66.1964736,22.5005998 L63.6992241,22.5005998 Z" id="Fill-8"></path>
                </g>
                <g id="Creditor">
                    <path d="M19.4366246,22.9704978 C17.8451432,23.4079321 16.2226181,23.5957414 14.600093,23.5957414 C10.2315748,23.5957414 7.82863443,19.9690922 7.82863443,15.9046149 C7.82863443,11.8716361 10.2940553,8.27609151 14.600093,8.27609151 C16.4096663,8.27609151 17.564178,8.40090402 19.1246156,8.90133514 L19.5611924,10.4644442 C18.469554,10.1207177 17.658095,9.99551147 16.534627,9.99551147 C12.7901268,9.99551147 11.3860865,12.5279844 11.3860865,15.967218 C11.3860865,19.3749533 12.8526072,21.8763214 16.534627,21.8763214 C17.658095,21.8763214 18.8126067,21.7196168 19.8735943,21.406995 L19.4366246,22.9704978 Z" id="Fill-10" fill="#D20E35" fill-rule="nonzero"></path>
                    <path d="M29.4482213,11.4337293 C29.073732,11.1211075 28.5432382,10.9647966 28.0441811,10.9647966 C26.7647086,10.9959013 25.6412407,12.0278682 24.892655,12.9657337 L24.892655,23.2830409 L21.5536878,23.2830409 L21.522644,8.83865327 L24.892655,8.21340964 L24.9236987,10.8710888 C25.9222059,9.68281092 27.1077613,8.24451439 28.8242034,8.21340964 C29.3232606,8.21340964 29.8537544,8.33861589 30.3217678,8.58863458 L29.4482213,11.4337293 Z" id="Fill-12" fill="#D20E35" fill-rule="nonzero"></path>
                    <path d="M40.1185342,13.4971514 C40.1185342,11.8088361 39.6505208,9.52638193 37.5285456,9.52638193 C35.344483,9.49527719 34.4080632,11.9966454 34.3145391,13.8723763 L40.1185342,13.8723763 L40.1185342,13.4971514 Z M34.3145391,15.0917588 C34.3145391,15.0917588 34.2834954,15.7170025 34.2834954,15.9981258 C34.2834954,19.5936704 35.5940115,21.8761246 39.4320359,21.8761246 C40.5551109,21.8761246 41.6785789,21.688709 42.7706102,21.4071919 L42.3340334,22.9706947 C40.742552,23.408129 39.0885903,23.5955446 37.4350215,23.5955446 C33.0354596,23.5955446 30.7260433,20.6571358 30.7260433,16.4048492 C30.75748,12.0277501 33.1600274,8.30739309 37.8405545,8.30739309 C42.0841119,8.30739309 43.6135059,11.2150909 43.6445496,15.0917588 L34.3145391,15.0917588 Z" id="Fill-14" fill="#D20E35" fill-rule="nonzero"></path>
                    <path d="M55.5623088,23.2831196 L55.5937455,10.5585458 C54.7198061,10.0266161 53.7212989,9.74549278 52.7227917,9.74549278 C49.7897504,9.74549278 48.9472476,13.4658498 48.9472476,15.8109071 C48.9472476,18.5307956 49.7897504,22.0948417 53.1283247,22.063737 C53.8462596,22.063737 54.5638016,21.9389246 55.2502998,21.6885122 L54.9068542,23.0953103 C53.908347,23.470929 52.8477524,23.6585638 51.8178085,23.6585638 C47.5117707,23.6894492 45.3587519,20.4065265 45.3587519,16.3735476 C45.3277082,12.2779657 47.6052949,8.30719619 52.0987737,8.30719619 C53.2532854,8.30719619 54.5638016,8.61981803 55.5937455,9.18245851 L55.5937455,1.17871022 L58.9323197,0.553466599 L58.9323197,23.2831196 L55.5623088,23.2831196 Z" id="Fill-16" fill="#D20E35" fill-rule="nonzero"></path>
                    <path d="M62.2255073,23.2515818 L62.2255073,8.80758795 L65.5644743,8.18234432 L65.5644743,23.2515818 L62.2255073,23.2515818 Z M63.8790761,5.58726834 C62.8495252,5.58726834 61.9445421,4.6805076 61.9445421,3.64893437 C61.9445421,2.58586272 62.7870448,1.58539418 63.8480324,1.58539418 C64.90902,1.58539418 65.8764834,2.46065651 65.8764834,3.52372815 C65.8764834,4.61790449 65.0025441,5.55616365 63.8790761,5.58726834 L63.8790761,5.58726834 Z" id="Fill-18" fill="#D20E35" fill-rule="nonzero"></path>
                    <path d="M76.2941242,23.1270056 C75.0460884,23.3770243 73.7976599,23.5955446 72.549624,23.5955446 C69.9596355,23.5955446 69.0550449,22.2202448 69.0550449,19.7814797 L69.0860889,9.74529595 L67.2761223,9.74529595 L67.2761223,8.55741178 L69.0860889,8.55741178 L69.0550449,5.08707344 L72.4246632,4.46182983 L72.4246632,8.55741178 L75.8885909,8.55741178 L75.8885909,9.74529595 L72.4246632,9.74529595 L72.4246632,18.8121159 C72.4246632,20.7508436 72.6745849,21.7198137 74.8586474,21.7198137 C75.4516216,21.7198137 76.0445958,21.6576043 76.6686134,21.5635028 L76.2941242,23.1270056 Z" id="Fill-20" fill="#D20E35" fill-rule="nonzero"></path>
                    <path d="M84.1872429,9.5579197 C81.098197,9.5579197 80.4427427,13.5286892 80.4427427,15.9044574 C80.4427427,18.249121 81.0667609,22.4703029 84.1558062,22.4703029 C87.1513279,22.4703029 87.8382189,18.4369304 87.8382189,16.1233714 C87.8382189,13.8098125 87.2452447,9.5579197 84.1872429,9.5579197 M84.1558062,23.6266886 C79.6627202,23.6266886 76.9481642,20.5630736 76.9481642,16.1548699 C76.9481642,11.8088755 79.8497685,8.27593403 84.3122037,8.27593403 C88.6807221,8.27593403 91.4577589,11.5588568 91.4577589,15.8107497 C91.4577589,20.2815565 88.7742463,23.6585808 84.1558062,23.6266886" id="Fill-22" fill="#D20E35" fill-rule="nonzero"></path>
                    <path d="M101.519064,11.4337293 C101.144968,11.1211075 100.614082,10.9647966 100.115024,10.9647966 C98.8359451,10.9959013 97.7124768,12.0278682 96.9634983,12.9657337 L96.9634983,23.2830409 L93.6249241,23.2830409 L93.5934874,8.83865327 L96.9634983,8.21340964 L96.9945424,10.8710888 C97.9930492,9.68281092 99.1789976,8.24451439 100.895047,8.21340964 C101.394497,8.21340964 101.924991,8.33861589 102.393004,8.58863458 L101.519064,11.4337293 Z" id="Fill-24" fill="#D20E35" fill-rule="nonzero"></path>
                    <path d="M8.63486715,30 C3.22933185,27.4324851 0,20.8556152 0,14.9823412 C0,9.0740252 2.84344673,2.32115788 8.63486715,0.000118119387 L9.02114519,0.421803205 C3.96652174,4.64259138 3.75589605,8.75707241 3.75589605,14.9122572 C3.75589605,20.2224969 4.49308595,26.0961647 9.02114519,29.5779212 L8.63486715,30 Z" id="Fill-26" fill="#D20E35" fill-rule="nonzero"></path>
                    <path d="M101.835278,29.577803 C106.363337,26.0960466 107.100134,20.2223789 107.100134,14.9121391 C107.100134,8.75734802 106.889901,4.64247326 101.835278,0.422078816 L102.221163,0 C108.013369,2.32103976 110.856423,9.07390714 110.856423,14.9822231 C110.856423,20.8558908 107.626698,27.4327607 102.221163,29.9998819 L101.835278,29.577803 Z" id="Fill-29" fill="#D20E35" fill-rule="nonzero"></path>
                    <g id="Fill-26-Clipped" transform="translate(0.000157, 0.000118)">
                        <mask id="mask-2" fill="white">
                            <use xlink:href="#path-1"></use>
                        </mask>
                        <g id="path-1"></g>
                    </g>
                    <g id="Fill-29-Clipped" transform="translate(101.835278, 0.000118)">
                        <mask id="mask-4" fill="white">
                            <use xlink:href="#path-3"></use>
                        </mask>
                        <g id="path-3"></g>
                    </g>
                </g>
            </g>
        </g>
    </g>
</svg>